<svg width="32" height="32" viewBox="0 0 32 32" fill="none" xmlns="http://www.w3.org/2000/svg">
<path d="M4 0H28V14H4V0Z" fill="#1A1A1A"/>
<path d="M6 2H26V8H6V2Z" fill="white"/>
<path d="M8 4H10V6H8V4Z" fill="#1A1A1A"/>
<path d="M12 4H14V6H12V4Z" fill="#1A1A1A"/>
<path d="M16 4H18V6H16V4Z" fill="#1A1A1A"/>
<path d="M20 4H22V6H20V4Z" fill="#1A1A1A"/>
<path d="M6 10H14V12H6V10Z" fill="white"/>
<path d="M18 10H26V12H18V10Z" fill="white"/>
<path d="M6 16H8V18H6V16Z" fill="#1A1A1A"/>
<path d="M18 16H20V18H18V16Z" fill="#1A1A1A"/>
<path d="M4 18H6V20H8V18H10V20H16V18H18V20H20V18H22V20H30V22H26V24H30V22H32V30H28V32H18V30H14V32H4V30H0V20H4V18Z" fill="#1A1A1A"/>
<path d="M6 18H8V20H6V18Z" fill="white"/>
<path d="M18 18H20V20H18V18Z" fill="white"/>
<path d="M2 22H4V24H2V22Z" fill="white"/>
<path d="M6 22H8V24H6V22Z" fill="white"/>
<path d="M10 22H12V24H10V22Z" fill="white"/>
<path d="M14 22H16V24H14V22Z" fill="white"/>
<path d="M18 22H20V24H18V22Z" fill="white"/>
<path d="M22 22H24V28H22V22Z" fill="white"/>
<path d="M26 22H30V24H26V22Z" fill="white"/>
<path d="M2 26H20V28H2V26Z" fill="white"/>
<path d="M26 26H30V28H26V26Z" fill="white"/>
</svg>
