<svg width="500" height="500" viewBox="0 0 500 500" fill="none" xmlns="http://www.w3.org/2000/svg">
<path d="M30 15C30 6.71572 23.2843 0 15 0C6.71572 0 0 6.71572 0 15C0 22.4868 5.48525 28.6925 12.6562 29.8178V19.3359H8.84766V15H12.6562V11.6953C12.6562 7.93594 14.8957 5.85938 18.322 5.85938C19.9626 5.85938 21.6797 6.15234 21.6797 6.15234V9.84375H19.7883C17.925 9.84375 17.3438 11.0001 17.3438 12.1875V15H21.5039L20.8389 19.3359H17.3438V29.8178C24.5147 28.6925 30 22.4868 30 15Z" fill="black"/>
<g clip-path="url(#clip0_11_2)">
<path fill-rule="evenodd" clip-rule="evenodd" d="M119 1.625C115.439 1.62685 111.995 2.88807 109.284 5.18315C106.572 7.47823 104.77 10.6575 104.199 14.1525C103.629 17.6475 104.327 21.2303 106.17 24.2602C108.012 27.2902 110.879 29.5697 114.256 30.6912C115.001 30.8295 115.282 30.3677 115.282 29.975C115.282 29.5823 115.267 28.4438 115.262 27.199C111.089 28.1005 110.207 25.4381 110.207 25.4381C109.527 23.7093 108.543 23.2549 108.543 23.2549C107.182 22.3312 108.645 22.3485 108.645 22.3485C110.153 22.4547 110.945 23.8871 110.945 23.8871C112.281 26.1667 114.455 25.5073 115.309 25.122C115.443 24.1563 115.833 23.4994 116.263 23.1264C112.93 22.751 109.428 21.4717 109.428 15.7568C109.407 14.2746 109.96 12.8413 110.972 11.7534C110.818 11.378 110.304 9.86154 111.119 7.80179C111.119 7.80179 112.378 7.40169 115.245 9.33055C117.703 8.66203 120.297 8.66203 122.756 9.33055C125.62 7.40169 126.877 7.80179 126.877 7.80179C127.694 9.8566 127.18 11.373 127.026 11.7534C128.041 12.8415 128.596 14.2773 128.573 15.7617C128.573 21.489 125.063 22.751 121.725 23.119C122.262 23.5833 122.741 24.4897 122.741 25.8827C122.741 27.8782 122.724 29.4835 122.724 29.975C122.724 30.3726 122.994 30.8369 123.754 30.6912C127.132 29.5696 129.999 27.2896 131.841 24.2592C133.684 21.2287 134.382 17.6454 133.811 14.1501C133.24 10.6548 131.437 7.47544 128.724 5.18076C126.012 2.88607 122.567 1.62568 119.005 1.625H119Z" fill="#191717"/>
<path d="M109.68 23.04C109.648 23.1141 109.529 23.1363 109.432 23.0845C109.335 23.0326 109.263 22.9363 109.298 22.8597C109.333 22.7832 109.449 22.7634 109.546 22.8153C109.643 22.8671 109.718 22.9659 109.68 23.04Z" fill="#191717"/>
<path d="M110.289 23.7142C110.238 23.74 110.179 23.7472 110.123 23.7346C110.066 23.722 110.016 23.6903 109.981 23.6451C109.884 23.5414 109.864 23.3981 109.939 23.3339C110.013 23.2697 110.147 23.2993 110.244 23.4031C110.341 23.5068 110.364 23.65 110.289 23.7142Z" fill="#191717"/>
<path d="M110.88 24.5712C110.788 24.6354 110.632 24.5712 110.545 24.4428C110.521 24.4198 110.502 24.3921 110.489 24.3616C110.476 24.331 110.469 24.2982 110.469 24.265C110.469 24.2318 110.476 24.1989 110.489 24.1684C110.502 24.1378 110.521 24.1102 110.545 24.0872C110.637 24.0254 110.793 24.0872 110.88 24.2131C110.967 24.3391 110.97 24.507 110.88 24.5712Z" fill="#191717"/>
<path d="M111.683 25.401C111.601 25.4924 111.434 25.4677 111.298 25.3442C111.161 25.2208 111.129 25.0528 111.211 24.9639C111.293 24.875 111.459 24.8997 111.601 25.0207C111.742 25.1417 111.769 25.3121 111.683 25.401Z" fill="#191717"/>
<path d="M112.808 25.8851C112.77 26.0012 112.602 26.0531 112.433 26.0037C112.264 25.9543 112.152 25.816 112.184 25.6974C112.217 25.5789 112.388 25.5245 112.559 25.5789C112.731 25.6332 112.84 25.7641 112.808 25.8851Z" fill="#191717"/>
<path d="M114.035 25.9691C114.035 26.0901 113.896 26.1938 113.717 26.1963C113.538 26.1988 113.392 26.1 113.392 25.979C113.392 25.8579 113.531 25.7542 113.71 25.7517C113.888 25.7493 114.035 25.8456 114.035 25.9691Z" fill="#191717"/>
<path d="M115.177 25.7789C115.2 25.8999 115.076 26.0259 114.897 26.0555C114.718 26.0852 114.561 26.0135 114.539 25.895C114.517 25.7764 114.646 25.648 114.82 25.6159C114.994 25.5838 115.155 25.6579 115.177 25.7789Z" fill="#191717"/>
</g>
<path d="M67 3.70117C71.0078 3.70117 71.4824 3.71875 73.0586 3.78906C74.5234 3.85352 75.3145 4.09961 75.8418 4.30469C76.5391 4.57422 77.043 4.90234 77.5645 5.42383C78.0918 5.95117 78.4141 6.44922 78.6836 7.14648C78.8887 7.67383 79.1348 8.4707 79.1992 9.92969C79.2695 11.5117 79.2871 11.9863 79.2871 15.9883C79.2871 19.9961 79.2695 20.4707 79.1992 22.0469C79.1348 23.5117 78.8887 24.3027 78.6836 24.8301C78.4141 25.5273 78.0859 26.0313 77.5645 26.5527C77.0371 27.0801 76.5391 27.4023 75.8418 27.6719C75.3145 27.877 74.5176 28.123 73.0586 28.1875C71.4766 28.2578 71.002 28.2754 67 28.2754C62.9922 28.2754 62.5176 28.2578 60.9414 28.1875C59.4766 28.123 58.6855 27.877 58.1582 27.6719C57.4609 27.4023 56.957 27.0742 56.4355 26.5527C55.9082 26.0254 55.5859 25.5273 55.3164 24.8301C55.1113 24.3027 54.8652 23.5059 54.8008 22.0469C54.7305 20.4648 54.7129 19.9902 54.7129 15.9883C54.7129 11.9805 54.7305 11.5059 54.8008 9.92969C54.8652 8.46484 55.1113 7.67383 55.3164 7.14648C55.5859 6.44922 55.9141 5.94531 56.4355 5.42383C56.9629 4.89648 57.4609 4.57422 58.1582 4.30469C58.6855 4.09961 59.4824 3.85352 60.9414 3.78906C62.5176 3.71875 62.9922 3.70117 67 3.70117ZM67 1C62.9277 1 62.418 1.01758 60.8184 1.08789C59.2246 1.1582 58.1289 1.41602 57.1797 1.78516C56.1895 2.17187 55.3516 2.68164 54.5195 3.51953C53.6816 4.35156 53.1719 5.18945 52.7852 6.17383C52.416 7.12891 52.1582 8.21875 52.0879 9.8125C52.0176 11.418 52 11.9277 52 16C52 20.0723 52.0176 20.582 52.0879 22.1816C52.1582 23.7754 52.416 24.8711 52.7852 25.8203C53.1719 26.8105 53.6816 27.6484 54.5195 28.4805C55.3516 29.3125 56.1895 29.8281 57.1738 30.209C58.1289 30.5781 59.2188 30.8359 60.8125 30.9062C62.4121 30.9766 62.9219 30.9941 66.9941 30.9941C71.0664 30.9941 71.5762 30.9766 73.1758 30.9062C74.7695 30.8359 75.8652 30.5781 76.8145 30.209C77.7988 29.8281 78.6367 29.3125 79.4688 28.4805C80.3008 27.6484 80.8164 26.8105 81.1973 25.8262C81.5664 24.8711 81.8242 23.7813 81.8945 22.1875C81.9648 20.5879 81.9824 20.0781 81.9824 16.0059C81.9824 11.9336 81.9648 11.4238 81.8945 9.82422C81.8242 8.23047 81.5664 7.13477 81.1973 6.18555C80.8281 5.18945 80.3184 4.35156 79.4805 3.51953C78.6484 2.6875 77.8105 2.17188 76.8262 1.79102C75.8711 1.42187 74.7813 1.16406 73.1875 1.09375C71.582 1.01758 71.0723 1 67 1Z" fill="black"/>
<path d="M67 8.29492C62.7461 8.29492 59.2949 11.7461 59.2949 16C59.2949 20.2539 62.7461 23.7051 67 23.7051C71.2539 23.7051 74.7051 20.2539 74.7051 16C74.7051 11.7461 71.2539 8.29492 67 8.29492ZM67 20.998C64.2402 20.998 62.002 18.7598 62.002 16C62.002 13.2402 64.2402 11.002 67 11.002C69.7598 11.002 71.998 13.2402 71.998 16C71.998 18.7598 69.7598 20.998 67 20.998Z" fill="black"/>
<path d="M76.8086 7.99018C76.8086 8.98627 76 9.78901 75.0098 9.78901C74.0137 9.78901 73.2109 8.98042 73.2109 7.99018C73.2109 6.99408 74.0195 6.19135 75.0098 6.19135C76 6.19135 76.8086 6.99994 76.8086 7.99018Z" fill="black"/>
<path d="M181.701 9.00006C181.701 9.00006 181.408 6.9317 180.506 6.02349C179.363 4.82818 178.086 4.82232 177.5 4.75201C173.305 4.44732 167.006 4.44732 167.006 4.44732H166.994C166.994 4.44732 160.695 4.44732 156.5 4.75201C155.914 4.82232 154.637 4.82818 153.494 6.02349C152.592 6.9317 152.305 9.00006 152.305 9.00006C152.305 9.00006 152 11.4317 152 13.8575V16.1309C152 18.5567 152.299 20.9883 152.299 20.9883C152.299 20.9883 152.592 23.0567 153.488 23.9649C154.631 25.1602 156.131 25.1192 156.799 25.2481C159.201 25.4766 167 25.5469 167 25.5469C167 25.5469 173.305 25.5352 177.5 25.2364C178.086 25.1661 179.363 25.1602 180.506 23.9649C181.408 23.0567 181.701 20.9883 181.701 20.9883C181.701 20.9883 182 18.5626 182 16.1309V13.8575C182 11.4317 181.701 9.00006 181.701 9.00006ZM163.9 18.8907V10.459L172.004 14.6895L163.9 18.8907Z" fill="black"/>
<path d="M19.269 53L20 53.7431L1.505 71.5L20 89.2569L19.269 90L0 71.5L19.269 53Z" fill="white"/>
<path d="M19.269 53L20 53.7431L1.505 71.5L20 89.2569L19.269 90L0 71.5L19.269 53Z" stroke="white"/>
<path d="M30.731 90L30 89.2569L48.495 71.5L30 53.7431L30.731 53L50 71.5L30.731 90Z" fill="white"/>
<path d="M30.731 90L30 89.2569L48.495 71.5L30 53.7431L30.731 53L50 71.5L30.731 90Z" stroke="white"/>
<path d="M120.44 53H116.977C116.668 53 116.417 53.2495 116.417 53.5572V67.0339C116.417 67.3416 116.668 67.5911 116.977 67.5911H120.44C120.749 67.5911 121 67.3416 121 67.0339V53.5572C121 53.2495 120.749 53 120.44 53Z" fill="white"/>
<path d="M114.023 53H110.56C110.251 53 110 53.2495 110 53.5572V67.0339C110 67.3416 110.251 67.5911 110.56 67.5911H114.023C114.333 67.5911 114.583 67.3416 114.583 67.0339V53.5572C114.583 53.2495 114.333 53 114.023 53Z" fill="white"/>
<path fill-rule="evenodd" clip-rule="evenodd" d="M90.2564 67.5651C90.1735 67.6198 90.0685 67.5852 90.022 67.4876C90.0076 67.4574 90.0001 67.424 90 67.39V53.2006C90 53.0912 90.077 53 90.1718 53C90.2014 53 90.231 53.0091 90.2564 53.0255L100.824 59.9442C100.878 59.9825 100.923 60.0346 100.953 60.0959C100.984 60.1572 101 60.2257 101 60.2953C101 60.3649 100.984 60.4335 100.953 60.4947C100.923 60.556 100.878 60.6081 100.824 60.6464L90.2555 67.5651H90.2564Z" fill="white"/>
<circle cx="57" cy="60" r="7" fill="white"/>
<circle cx="77" cy="60" r="5" stroke="white" stroke-width="4"/>
<defs>
<clipPath id="clip0_11_2">
<rect width="30" height="30" fill="white" transform="translate(104 1)"/>
</clipPath>
</defs>
</svg>
